<svg id="visual" viewBox="0 0 900 600" width="900" height="600" xmlns="http://www.w3.org/2000/svg" xmlns:xlink="http://www.w3.org/1999/xlink" version="1.1"><rect x="0" y="0" width="900" height="600" fill="#210000"></rect><defs><linearGradient id="grad1_0" x1="33.3%" y1="0%" x2="100%" y2="100%"><stop offset="20%" stop-color="#f4fa3c" stop-opacity="1"></stop><stop offset="80%" stop-color="#f4fa3c" stop-opacity="1"></stop></linearGradient></defs><defs><linearGradient id="grad1_1" x1="33.3%" y1="0%" x2="100%" y2="100%"><stop offset="20%" stop-color="#f4fa3c" stop-opacity="1"></stop><stop offset="80%" stop-color="#eacb2c" stop-opacity="1"></stop></linearGradient></defs><defs><linearGradient id="grad1_2" x1="33.3%" y1="0%" x2="100%" y2="100%"><stop offset="20%" stop-color="#d69e28" stop-opacity="1"></stop><stop offset="80%" stop-color="#eacb2c" stop-opacity="1"></stop></linearGradient></defs><defs><linearGradient id="grad1_3" x1="33.3%" y1="0%" x2="100%" y2="100%"><stop offset="20%" stop-color="#d69e28" stop-opacity="1"></stop><stop offset="80%" stop-color="#ba7628" stop-opacity="1"></stop></linearGradient></defs><defs><linearGradient id="grad1_4" x1="33.3%" y1="0%" x2="100%" y2="100%"><stop offset="20%" stop-color="#975226" stop-opacity="1"></stop><stop offset="80%" stop-color="#ba7628" stop-opacity="1"></stop></linearGradient></defs><defs><linearGradient id="grad1_5" x1="33.3%" y1="0%" x2="100%" y2="100%"><stop offset="20%" stop-color="#975226" stop-opacity="1"></stop><stop offset="80%" stop-color="#6f3421" stop-opacity="1"></stop></linearGradient></defs><defs><linearGradient id="grad1_6" x1="33.3%" y1="0%" x2="100%" y2="100%"><stop offset="20%" stop-color="#461a17" stop-opacity="1"></stop><stop offset="80%" stop-color="#6f3421" stop-opacity="1"></stop></linearGradient></defs><defs><linearGradient id="grad1_7" x1="33.3%" y1="0%" x2="100%" y2="100%"><stop offset="20%" stop-color="#461a17" stop-opacity="1"></stop><stop offset="80%" stop-color="#210000" stop-opacity="1"></stop></linearGradient></defs><defs><linearGradient id="grad2_0" x1="0%" y1="0%" x2="66.7%" y2="100%"><stop offset="20%" stop-color="#f4fa3c" stop-opacity="1"></stop><stop offset="80%" stop-color="#f4fa3c" stop-opacity="1"></stop></linearGradient></defs><defs><linearGradient id="grad2_1" x1="0%" y1="0%" x2="66.7%" y2="100%"><stop offset="20%" stop-color="#eacb2c" stop-opacity="1"></stop><stop offset="80%" stop-color="#f4fa3c" stop-opacity="1"></stop></linearGradient></defs><defs><linearGradient id="grad2_2" x1="0%" y1="0%" x2="66.7%" y2="100%"><stop offset="20%" stop-color="#eacb2c" stop-opacity="1"></stop><stop offset="80%" stop-color="#d69e28" stop-opacity="1"></stop></linearGradient></defs><defs><linearGradient id="grad2_3" x1="0%" y1="0%" x2="66.7%" y2="100%"><stop offset="20%" stop-color="#ba7628" stop-opacity="1"></stop><stop offset="80%" stop-color="#d69e28" stop-opacity="1"></stop></linearGradient></defs><defs><linearGradient id="grad2_4" x1="0%" y1="0%" x2="66.7%" y2="100%"><stop offset="20%" stop-color="#ba7628" stop-opacity="1"></stop><stop offset="80%" stop-color="#975226" stop-opacity="1"></stop></linearGradient></defs><defs><linearGradient id="grad2_5" x1="0%" y1="0%" x2="66.7%" y2="100%"><stop offset="20%" stop-color="#6f3421" stop-opacity="1"></stop><stop offset="80%" stop-color="#975226" stop-opacity="1"></stop></linearGradient></defs><defs><linearGradient id="grad2_6" x1="0%" y1="0%" x2="66.7%" y2="100%"><stop offset="20%" stop-color="#6f3421" stop-opacity="1"></stop><stop offset="80%" stop-color="#461a17" stop-opacity="1"></stop></linearGradient></defs><defs><linearGradient id="grad2_7" x1="0%" y1="0%" x2="66.7%" y2="100%"><stop offset="20%" stop-color="#210000" stop-opacity="1"></stop><stop offset="80%" stop-color="#461a17" stop-opacity="1"></stop></linearGradient></defs><g transform="translate(900, 0)"><path d="M0 486.7C-36.9 483 -73.9 479.3 -105.5 462.1C-137.1 444.9 -163.3 414.1 -188.3 391C-213.4 367.9 -237.3 352.5 -273.1 342.4C-308.9 332.4 -356.7 327.8 -380.6 303.5C-404.5 279.1 -404.5 235.1 -413.5 199.2C-422.6 163.2 -440.6 135.5 -454.3 103.7C-468 71.9 -477.4 35.9 -486.7 0L0 0Z" fill="#32100f"></path><path d="M0 425.9C-32.3 422.7 -64.7 419.4 -92.3 404.4C-119.9 389.3 -142.8 362.4 -164.8 342.1C-186.7 321.9 -207.6 308.4 -239 299.6C-270.3 290.9 -312.1 286.8 -333 265.5C-353.9 244.3 -353.9 205.7 -361.9 174.3C-369.8 142.8 -385.5 118.6 -397.5 90.7C-409.5 62.9 -417.7 31.4 -425.9 0L0 0Z" fill="#5b261d"></path><path d="M0 365.1C-27.7 362.3 -55.4 359.5 -79.1 346.6C-102.8 333.7 -122.4 310.6 -141.2 293.3C-160 275.9 -177.9 264.3 -204.8 256.8C-231.7 249.3 -267.5 245.9 -285.4 227.6C-303.3 209.4 -303.4 176.3 -310.2 149.4C-316.9 122.4 -330.5 101.6 -340.7 77.8C-351 53.9 -358 26.9 -365.1 0L0 0Z" fill="#844224"></path><path d="M0 304.2C-23.1 301.9 -46.2 299.6 -65.9 288.8C-85.7 278.1 -102 258.8 -117.7 244.4C-133.3 229.9 -148.3 220.3 -170.7 214C-193.1 207.8 -222.9 204.9 -237.8 189.7C-252.8 174.5 -252.8 146.9 -258.5 124.5C-264.1 102 -275.4 84.7 -283.9 64.8C-292.5 44.9 -298.4 22.5 -304.2 0L0 0Z" fill="#a96428"></path><path d="M0 243.4C-18.5 241.5 -36.9 239.7 -52.7 231.1C-68.5 222.4 -81.6 207.1 -94.2 195.5C-106.7 184 -118.6 176.2 -136.5 171.2C-154.5 166.2 -178.3 163.9 -190.3 151.7C-202.2 139.6 -202.3 117.5 -206.8 99.6C-211.3 81.6 -220.3 67.8 -227.2 51.8C-234 35.9 -238.7 18 -243.4 0L0 0Z" fill="#c98a28"></path><path d="M0 182.5C-13.9 181.1 -27.7 179.8 -39.6 173.3C-51.4 166.8 -61.2 155.3 -70.6 146.6C-80 138 -89 132.2 -102.4 128.4C-115.8 124.7 -133.7 122.9 -142.7 113.8C-151.7 104.7 -151.7 88.1 -155.1 74.7C-158.5 61.2 -165.2 50.8 -170.4 38.9C-175.5 26.9 -179 13.5 -182.5 0L0 0Z" fill="#e1b429"></path><path d="M0 121.7C-9.2 120.8 -18.5 119.8 -26.4 115.5C-34.3 111.2 -40.8 103.5 -47.1 97.8C-53.3 92 -59.3 88.1 -68.3 85.6C-77.2 83.1 -89.2 82 -95.1 75.9C-101.1 69.8 -101.1 58.8 -103.4 49.8C-105.6 40.8 -110.2 33.9 -113.6 25.9C-117 18 -119.3 9 -121.7 0L0 0Z" fill="#f0e232"></path><path d="M0 60.8C-4.6 60.4 -9.2 59.9 -13.2 57.8C-17.1 55.6 -20.4 51.8 -23.5 48.9C-26.7 46 -29.7 44.1 -34.1 42.8C-38.6 41.6 -44.6 41 -47.6 37.9C-50.6 34.9 -50.6 29.4 -51.7 24.9C-52.8 20.4 -55.1 16.9 -56.8 13C-58.5 9 -59.7 4.5 -60.8 0L0 0Z" fill="#f4fa3c"></path></g><g transform="translate(0, 600)"><path d="M0 -486.7C31.3 -459.4 62.6 -432 96.6 -423.1C130.5 -414.3 167.2 -424 202.2 -419.9C237.2 -415.7 270.6 -397.6 299.3 -375.3C328 -352.9 352 -326.3 373.7 -298C395.4 -269.8 414.9 -239.9 432.5 -208.3C450.1 -176.7 465.8 -143.3 474.5 -108.3C483.3 -73.3 485 -36.7 486.7 0L0 0Z" fill="#32100f"></path><path d="M0 -425.9C27.4 -401.9 54.8 -378 84.5 -370.2C114.2 -362.5 146.3 -371 176.9 -367.4C207.5 -363.7 236.8 -347.9 261.9 -328.4C287 -308.8 308 -285.5 327 -260.8C346 -236 363 -209.9 378.4 -182.2C393.8 -154.6 407.6 -125.4 415.2 -94.8C422.9 -64.1 424.4 -32.1 425.9 0L0 0Z" fill="#5b261d"></path><path d="M0 -365.1C23.5 -344.5 47 -324 72.4 -317.3C97.9 -310.7 125.4 -318 151.6 -314.9C177.9 -311.8 202.9 -298.2 224.5 -281.5C246 -264.7 264 -244.7 280.3 -223.5C296.6 -202.3 311.2 -179.9 324.3 -156.2C337.5 -132.5 349.4 -107.5 355.9 -81.2C362.5 -55 363.8 -27.5 365.1 0L0 0Z" fill="#844224"></path><path d="M0 -304.2C19.6 -287.1 39.1 -270 60.4 -264.4C81.6 -258.9 104.5 -265 126.4 -262.4C148.2 -259.8 169.1 -248.5 187 -234.5C205 -220.6 220 -203.9 233.6 -186.3C247.2 -168.6 259.3 -149.9 270.3 -130.2C281.3 -110.4 291.1 -89.6 296.6 -67.7C302.1 -45.8 303.1 -22.9 304.2 0L0 0Z" fill="#a96428"></path><path d="M0 -243.4C15.7 -229.7 31.3 -216 48.3 -211.6C65.3 -207.1 83.6 -212 101.1 -209.9C118.6 -207.8 135.3 -198.8 149.6 -187.6C164 -176.5 176 -163.1 186.9 -149C197.7 -134.9 207.4 -119.9 216.2 -104.1C225 -88.3 232.9 -71.7 237.3 -54.2C241.6 -36.7 242.5 -18.3 243.4 0L0 0Z" fill="#c98a28"></path><path d="M0 -182.5C11.7 -172.3 23.5 -162 36.2 -158.7C49 -155.4 62.7 -159 75.8 -157.4C88.9 -155.9 101.5 -149.1 112.2 -140.7C123 -132.3 132 -122.4 140.1 -111.8C148.3 -101.2 155.6 -90 162.2 -78.1C168.8 -66.2 174.7 -53.7 178 -40.6C181.2 -27.5 181.9 -13.7 182.5 0L0 0Z" fill="#e1b429"></path><path d="M0 -121.7C7.8 -114.8 15.7 -108 24.1 -105.8C32.6 -103.6 41.8 -106 50.5 -105C59.3 -103.9 67.6 -99.4 74.8 -93.8C82 -88.2 88 -81.6 93.4 -74.5C98.9 -67.4 103.7 -60 108.1 -52.1C112.5 -44.2 116.5 -35.8 118.6 -27.1C120.8 -18.3 121.3 -9.2 121.7 0L0 0Z" fill="#f0e232"></path><path d="M0 -60.8C3.9 -57.4 7.8 -54 12.1 -52.9C16.3 -51.8 20.9 -53 25.3 -52.5C29.6 -52 33.8 -49.7 37.4 -46.9C41 -44.1 44 -40.8 46.7 -37.3C49.4 -33.7 51.9 -30 54.1 -26C56.3 -22.1 58.2 -17.9 59.3 -13.5C60.4 -9.2 60.6 -4.6 60.8 0L0 0Z" fill="#f4fa3c"></path></g></svg>